<?xml version="1.0" encoding="UTF-8"?>
<!DOCTYPE svg PUBLIC "-//W3C//DTD SVG 1.1//EN" "http://www.w3.org/2000/svg">
<svg xmlns="http://www.w3.org/2000/svg" version="1.1" width="512px" height="512px" style="shape-rendering:geometricPrecision; text-rendering:geometricPrecision; image-rendering:optimizeQuality; fill-rule:evenodd; clip-rule:evenodd" xmlns:xlink="http://www.w3.org/1999/xlink">
<g><path style="opacity:0.995" fill="#000000" d="M 34.5,-0.5 C 181.833,-0.5 329.167,-0.5 476.5,-0.5C 476.5,156.167 476.5,312.833 476.5,469.5C 357.833,469.5 239.167,469.5 120.5,469.5C 120.5,483.5 120.5,497.5 120.5,511.5C 119.833,511.5 119.167,511.5 118.5,511.5C 112.307,506.812 105.807,502.479 99,498.5C 92.1932,502.479 85.6932,506.812 79.5,511.5C 78.8333,511.5 78.1667,511.5 77.5,511.5C 77.5,497.5 77.5,483.5 77.5,469.5C 63.1667,469.5 48.8333,469.5 34.5,469.5C 34.5,312.833 34.5,156.167 34.5,-0.5 Z"/></g>
<g><path style="opacity:1" fill="#fdfdfd" d="M 411.5,402.5 C 390.86,404.489 369.86,405.155 348.5,404.5C 337.978,375.604 327.645,346.604 317.5,317.5C 276.504,316.333 235.504,316.167 194.5,317C 183.928,346.217 173.262,375.383 162.5,404.5C 142.472,405.154 122.805,404.488 103.5,402.5C 146.696,289.578 189.696,176.578 232.5,63.5C 249.167,63.5 265.833,63.5 282.5,63.5C 325.304,176.578 368.304,289.578 411.5,402.5 Z"/></g>
<g><path style="opacity:1" fill="#030303" d="M 300.5,268.5 C 286.015,269.833 271.182,270.499 256,270.5C 240.818,270.499 225.985,269.833 211.5,268.5C 226.903,223.292 241.903,177.958 256.5,132.5C 270.562,178.019 285.228,223.352 300.5,268.5 Z"/></g>
<g><path style="opacity:1" fill="#7f7f7f" d="M 211.5,268.5 C 225.985,269.833 240.818,270.499 256,270.5C 271.182,270.499 286.015,269.833 300.5,268.5C 301.404,269.209 301.737,270.209 301.5,271.5C 271.167,271.5 240.833,271.5 210.5,271.5C 210.263,270.209 210.596,269.209 211.5,268.5 Z"/></g>
<g><path style="opacity:1" fill="#bebebe" d="M 103.5,402.5 C 122.805,404.488 142.472,405.154 162.5,404.5C 142.337,405.663 122.004,405.829 101.5,405C 102.066,404.005 102.733,403.172 103.5,402.5 Z"/></g>
<g><path style="opacity:1" fill="#bebebe" d="M 411.5,402.5 C 412.267,403.172 412.934,404.005 413.5,405C 391.663,405.829 369.996,405.663 348.5,404.5C 369.86,405.155 390.86,404.489 411.5,402.5 Z"/></g>
</svg>
